<?xml version="1.0" encoding="UTF-8" standalone="no"?>
<!DOCTYPE svg PUBLIC "-//W3C//DTD SVG 1.1//EN"
 "http://www.w3.org/Graphics/SVG/1.1/DTD/svg11.dtd">
<!-- Generated by graphviz version 7.1.0 (0)
 -->
<!-- Title: m101 Pages: 1 -->
<svg width="673pt" height="653pt"
 viewBox="0.00 0.00 673.00 653.00" xmlns="http://www.w3.org/2000/svg" xmlns:xlink="http://www.w3.org/1999/xlink">
<g id="graph0" class="graph" transform="scale(1 1) rotate(0) translate(4 649)">
<title>m101</title>
<polygon fill="white" stroke="none" points="-4,4 -4,-649 669,-649 669,4 -4,4"/>
<!-- p0 -->
<g id="node1" class="node">
<title>p0</title>
<polygon fill="none" stroke="black" points="256,-645 202,-645 202,-609 256,-609 256,-645"/>
<text text-anchor="middle" x="229" y="-623.3" font-family="Times,serif" font-size="14.00">\CLK</text>
</g>
<!-- i8 -->
<g id="node2" class="node">
<title>i8</title>
<polygon fill="none" stroke="black" points="263,-558 195,-558 195,-522 263,-522 263,-558"/>
<text text-anchor="middle" x="229" y="-536.3" font-family="Times,serif" font-size="14.00">$posedge</text>
</g>
<!-- p0&#45;&gt;i8 -->
<g id="edge1" class="edge">
<title>p0&#45;&gt;i8</title>
<path fill="none" stroke="black" d="M229,-608.8C229,-597.58 229,-582.67 229,-569.69"/>
<polygon fill="black" stroke="black" points="232.5,-569.98 229,-559.98 225.5,-569.98 232.5,-569.98"/>
<text text-anchor="middle" x="236" y="-579.8" font-family="Times,serif" font-size="14.00">n1</text>
</g>
<!-- i21 -->
<g id="node4" class="node">
<title>i21</title>
<polygon fill="none" stroke="black" points="180,-297 126,-297 126,-261 180,-261 180,-297"/>
<text text-anchor="middle" x="153" y="-275.3" font-family="Times,serif" font-size="14.00">$idff</text>
</g>
<!-- i8&#45;&gt;i21 -->
<g id="edge7" class="edge">
<title>i8&#45;&gt;i21</title>
<path fill="none" stroke="black" d="M228.95,-521.73C228.3,-487.39 224.06,-408.64 200,-348 194.11,-333.16 184.46,-318.37 175.44,-306.4"/>
<polygon fill="black" stroke="black" points="178.28,-304.35 169.35,-298.64 172.77,-308.67 178.28,-304.35"/>
<text text-anchor="middle" x="225" y="-405.8" font-family="Times,serif" font-size="14.00">n7</text>
</g>
<!-- i23 -->
<g id="node6" class="node">
<title>i23</title>
<polygon fill="none" stroke="black" points="301,-471 247,-471 247,-435 301,-435 301,-471"/>
<text text-anchor="middle" x="274" y="-449.3" font-family="Times,serif" font-size="14.00">$idff</text>
</g>
<!-- i8&#45;&gt;i23 -->
<g id="edge8" class="edge">
<title>i8&#45;&gt;i23</title>
<path fill="none" stroke="black" d="M238.11,-521.8C244.23,-510.24 252.42,-494.75 259.44,-481.5"/>
<polygon fill="black" stroke="black" points="262.46,-483.28 264.04,-472.8 256.27,-480.01 262.46,-483.28"/>
<text text-anchor="middle" x="261" y="-492.8" font-family="Times,serif" font-size="14.00">n7</text>
</g>
<!-- i3 -->
<g id="node3" class="node">
<title>i3</title>
<polygon fill="none" stroke="black" points="190.5,-384 99.5,-384 99.5,-348 190.5,-348 190.5,-384"/>
<text text-anchor="middle" x="145" y="-362.3" font-family="Times,serif" font-size="14.00">$const_UB32</text>
</g>
<!-- i3&#45;&gt;i21 -->
<g id="edge2" class="edge">
<title>i3&#45;&gt;i21</title>
<path fill="none" stroke="black" d="M146.62,-347.8C147.67,-336.58 149.08,-321.67 150.3,-308.69"/>
<polygon fill="black" stroke="black" points="153.76,-309.26 151.21,-298.97 146.79,-308.6 153.76,-309.26"/>
<text text-anchor="middle" x="157" y="-318.8" font-family="Times,serif" font-size="14.00">n2</text>
</g>
<!-- i17 -->
<g id="node13" class="node">
<title>i17</title>
<polygon fill="none" stroke="black" points="214.5,-123 159.5,-123 159.5,-87 214.5,-87 214.5,-123"/>
<text text-anchor="middle" x="187" y="-101.3" font-family="Times,serif" font-size="14.00">$mux2</text>
</g>
<!-- i21&#45;&gt;i17 -->
<g id="edge22" class="edge">
<title>i21&#45;&gt;i17</title>
<path fill="none" stroke="black" d="M153.1,-260.86C153.53,-240.07 155.3,-204.07 162,-174 165.04,-160.37 170.14,-145.77 174.95,-133.61"/>
<polygon fill="black" stroke="black" points="178.08,-135.21 178.64,-124.63 171.6,-132.55 178.08,-135.21"/>
<text text-anchor="middle" x="172.5" y="-188.3" font-family="Times,serif" font-size="14.00">n20</text>
</g>
<!-- i16 -->
<g id="node17" class="node">
<title>i16</title>
<polygon fill="none" stroke="black" points="54,-210 0,-210 0,-174 54,-174 54,-210"/>
<text text-anchor="middle" x="27" y="-188.3" font-family="Times,serif" font-size="14.00">$not</text>
</g>
<!-- i21&#45;&gt;i16 -->
<g id="edge23" class="edge">
<title>i21&#45;&gt;i16</title>
<path fill="none" stroke="black" d="M125.7,-263C115.29,-257.04 103.43,-249.96 93,-243 81.04,-235.02 68.35,-225.65 57.33,-217.19"/>
<polygon fill="black" stroke="black" points="59.76,-214.64 49.71,-211.27 55.47,-220.17 59.76,-214.64"/>
<text text-anchor="middle" x="103.5" y="-231.8" font-family="Times,serif" font-size="14.00">n20</text>
</g>
<!-- i2 -->
<g id="node19" class="node">
<title>i2</title>
<polygon fill="none" stroke="black" points="126,-210 72,-210 72,-174 126,-174 126,-210"/>
<text text-anchor="middle" x="99" y="-188.3" font-family="Times,serif" font-size="14.00">i2</text>
</g>
<!-- i21&#45;&gt;i2 -->
<g id="edge24" class="edge">
<title>i21&#45;&gt;i2</title>
<path fill="none" stroke="black" d="M139.32,-260.51C135.21,-255.01 130.79,-248.85 127,-243 122.37,-235.85 117.7,-227.89 113.54,-220.46"/>
<polygon fill="black" stroke="black" points="116.66,-218.86 108.78,-211.77 110.52,-222.22 116.66,-218.86"/>
<text text-anchor="middle" x="137.5" y="-231.8" font-family="Times,serif" font-size="14.00">n20</text>
</g>
<!-- i5 -->
<g id="node5" class="node">
<title>i5</title>
<polygon fill="none" stroke="black" points="377.5,-558 286.5,-558 286.5,-522 377.5,-522 377.5,-558"/>
<text text-anchor="middle" x="332" y="-536.3" font-family="Times,serif" font-size="14.00">$const_UB32</text>
</g>
<!-- i5&#45;&gt;i23 -->
<g id="edge3" class="edge">
<title>i5&#45;&gt;i23</title>
<path fill="none" stroke="black" d="M320.26,-521.8C312.22,-510.01 301.39,-494.14 292.23,-480.72"/>
<polygon fill="black" stroke="black" points="295.3,-479 286.77,-472.72 289.52,-482.95 295.3,-479"/>
<text text-anchor="middle" x="313" y="-492.8" font-family="Times,serif" font-size="14.00">n4</text>
</g>
<!-- i6 -->
<g id="node7" class="node">
<title>i6</title>
<polygon fill="none" stroke="black" points="364.5,-384 305.5,-384 305.5,-348 364.5,-348 364.5,-384"/>
<text text-anchor="middle" x="335" y="-362.3" font-family="Times,serif" font-size="14.00">$isignal</text>
</g>
<!-- i5&#45;&gt;i6 -->
<g id="edge4" class="edge">
<title>i5&#45;&gt;i6</title>
<path fill="none" stroke="black" d="M332.3,-521.56C332.82,-491.94 333.87,-431.54 334.5,-395.64"/>
<polygon fill="black" stroke="black" points="337.99,-396.06 334.67,-386 330.99,-395.94 337.99,-396.06"/>
<text text-anchor="middle" x="340" y="-449.3" font-family="Times,serif" font-size="14.00">n4</text>
</g>
<!-- i23&#45;&gt;i6 -->
<g id="edge21" class="edge">
<title>i23&#45;&gt;i6</title>
<path fill="none" stroke="black" d="M282.35,-434.7C287.46,-424.77 294.46,-412.27 302,-402 304.29,-398.88 306.84,-395.73 309.47,-392.68"/>
<polygon fill="black" stroke="black" points="311.83,-395.3 315.96,-385.54 306.65,-390.59 311.83,-395.3"/>
<text text-anchor="middle" x="312.5" y="-405.8" font-family="Times,serif" font-size="14.00">n22</text>
</g>
<!-- i12 -->
<g id="node8" class="node">
<title>i12</title>
<polygon fill="none" stroke="black" points="665,-297 599,-297 599,-261 665,-261 665,-297"/>
<text text-anchor="middle" x="632" y="-275.3" font-family="Times,serif" font-size="14.00">$uextend</text>
</g>
<!-- i6&#45;&gt;i12 -->
<g id="edge5" class="edge">
<title>i6&#45;&gt;i12</title>
<path fill="none" stroke="black" d="M364.8,-358.32C410.85,-347.73 502.13,-325.66 587.96,-297.48"/>
<polygon fill="black" stroke="black" points="588.85,-300.88 597.23,-294.4 586.64,-294.23 588.85,-300.88"/>
<text text-anchor="middle" x="534" y="-318.8" font-family="Times,serif" font-size="14.00">n5</text>
</g>
<!-- i9 -->
<g id="node9" class="node">
<title>i9</title>
<polygon fill="none" stroke="black" points="362,-297 296,-297 296,-261 362,-261 362,-297"/>
<text text-anchor="middle" x="329" y="-275.3" font-family="Times,serif" font-size="14.00">$uextend</text>
</g>
<!-- i6&#45;&gt;i9 -->
<g id="edge6" class="edge">
<title>i6&#45;&gt;i9</title>
<path fill="none" stroke="black" d="M333.79,-347.8C332.99,-336.58 331.94,-321.67 331.02,-308.69"/>
<polygon fill="black" stroke="black" points="334.54,-308.71 330.34,-298.98 327.55,-309.2 334.54,-308.71"/>
<text text-anchor="middle" x="339" y="-318.8" font-family="Times,serif" font-size="14.00">n5</text>
</g>
<!-- i14 -->
<g id="node14" class="node">
<title>i14</title>
<polygon fill="none" stroke="black" points="562,-210 508,-210 508,-174 562,-174 562,-210"/>
<text text-anchor="middle" x="535" y="-188.3" font-family="Times,serif" font-size="14.00">$add</text>
</g>
<!-- i12&#45;&gt;i14 -->
<g id="edge13" class="edge">
<title>i12&#45;&gt;i14</title>
<path fill="none" stroke="black" d="M612.37,-260.8C598.26,-248.44 579.04,-231.59 563.28,-217.78"/>
<polygon fill="black" stroke="black" points="565.9,-215.42 556.07,-211.46 561.29,-220.69 565.9,-215.42"/>
<text text-anchor="middle" x="599.5" y="-231.8" font-family="Times,serif" font-size="14.00">n11</text>
</g>
<!-- i11 -->
<g id="node10" class="node">
<title>i11</title>
<polygon fill="none" stroke="black" points="362,-210 308,-210 308,-174 362,-174 362,-210"/>
<text text-anchor="middle" x="335" y="-188.3" font-family="Times,serif" font-size="14.00">$slt</text>
</g>
<!-- i9&#45;&gt;i11 -->
<g id="edge9" class="edge">
<title>i9&#45;&gt;i11</title>
<path fill="none" stroke="black" d="M330.21,-260.8C331.01,-249.58 332.06,-234.67 332.98,-221.69"/>
<polygon fill="black" stroke="black" points="336.45,-222.2 333.66,-211.98 329.46,-221.71 336.45,-222.2"/>
<text text-anchor="middle" x="339" y="-231.8" font-family="Times,serif" font-size="14.00">n8</text>
</g>
<!-- i19 -->
<g id="node12" class="node">
<title>i19</title>
<polygon fill="none" stroke="black" points="397.5,-36 342.5,-36 342.5,0 397.5,0 397.5,-36"/>
<text text-anchor="middle" x="370" y="-14.3" font-family="Times,serif" font-size="14.00">$mux2</text>
</g>
<!-- i11&#45;&gt;i19 -->
<g id="edge11" class="edge">
<title>i11&#45;&gt;i19</title>
<path fill="none" stroke="black" d="M335.59,-173.87C336.58,-153.09 339.19,-117.11 346,-87 349.06,-73.44 353.98,-58.86 358.57,-46.68"/>
<polygon fill="black" stroke="black" points="361.71,-48.28 362.08,-37.69 355.19,-45.73 361.71,-48.28"/>
<text text-anchor="middle" x="356.5" y="-101.3" font-family="Times,serif" font-size="14.00">n10</text>
</g>
<!-- i11&#45;&gt;i17 -->
<g id="edge12" class="edge">
<title>i11&#45;&gt;i17</title>
<path fill="none" stroke="black" d="M307.51,-175.21C284.19,-161.82 250.51,-142.47 224.67,-127.64"/>
<polygon fill="black" stroke="black" points="226.57,-124.69 216.16,-122.75 223.09,-130.76 226.57,-124.69"/>
<text text-anchor="middle" x="279.5" y="-144.8" font-family="Times,serif" font-size="14.00">n10</text>
</g>
<!-- i10 -->
<g id="node11" class="node">
<title>i10</title>
<polygon fill="none" stroke="black" points="471.5,-297 380.5,-297 380.5,-261 471.5,-261 471.5,-297"/>
<text text-anchor="middle" x="426" y="-275.3" font-family="Times,serif" font-size="14.00">$const_UB32</text>
</g>
<!-- i10&#45;&gt;i11 -->
<g id="edge10" class="edge">
<title>i10&#45;&gt;i11</title>
<path fill="none" stroke="black" d="M407.58,-260.8C394.47,-248.55 376.65,-231.9 361.94,-218.16"/>
<polygon fill="black" stroke="black" points="364.5,-215.77 354.81,-211.5 359.73,-220.88 364.5,-215.77"/>
<text text-anchor="middle" x="392" y="-231.8" font-family="Times,serif" font-size="14.00">n9</text>
</g>
<!-- i19&#45;&gt;i23 -->
<g id="edge20" class="edge">
<title>i19&#45;&gt;i23</title>
<path fill="none" stroke="black" d="M342.13,-28.5C311.93,-40.77 268,-65.27 268,-104 268,-367 268,-367 268,-367 268,-385.93 269.5,-407.17 271,-423.68"/>
<polygon fill="black" stroke="black" points="267.48,-423.64 271.92,-433.26 274.45,-422.97 267.48,-423.64"/>
<text text-anchor="middle" x="278.5" y="-231.8" font-family="Times,serif" font-size="14.00">n18</text>
</g>
<!-- i17&#45;&gt;i21 -->
<g id="edge18" class="edge">
<title>i17&#45;&gt;i21</title>
<path fill="none" stroke="black" d="M188.69,-123.43C190.32,-144.2 191.89,-179.88 187,-210 184.52,-225.26 182.75,-229.09 176,-243 174.68,-245.73 173.18,-248.49 171.59,-251.22"/>
<polygon fill="black" stroke="black" points="168.78,-249.11 166.43,-259.44 174.71,-252.83 168.78,-249.11"/>
<text text-anchor="middle" x="200.5" y="-188.3" font-family="Times,serif" font-size="14.00">n16</text>
</g>
<!-- i15 -->
<g id="node16" class="node">
<title>i15</title>
<polygon fill="none" stroke="black" points="432,-123 376,-123 376,-87 432,-87 432,-123"/>
<text text-anchor="middle" x="404" y="-101.3" font-family="Times,serif" font-size="14.00">$strunc</text>
</g>
<!-- i14&#45;&gt;i15 -->
<g id="edge15" class="edge">
<title>i14&#45;&gt;i15</title>
<path fill="none" stroke="black" d="M508.17,-173.59C488.57,-160.87 461.77,-143.48 440.26,-129.52"/>
<polygon fill="black" stroke="black" points="442.35,-126.71 432.06,-124.21 438.54,-132.59 442.35,-126.71"/>
<text text-anchor="middle" x="487.5" y="-144.8" font-family="Times,serif" font-size="14.00">n13</text>
</g>
<!-- i13 -->
<g id="node15" class="node">
<title>i13</title>
<polygon fill="none" stroke="black" points="580.5,-297 489.5,-297 489.5,-261 580.5,-261 580.5,-297"/>
<text text-anchor="middle" x="535" y="-275.3" font-family="Times,serif" font-size="14.00">$const_UB32</text>
</g>
<!-- i13&#45;&gt;i14 -->
<g id="edge14" class="edge">
<title>i13&#45;&gt;i14</title>
<path fill="none" stroke="black" d="M535,-260.8C535,-249.58 535,-234.67 535,-221.69"/>
<polygon fill="black" stroke="black" points="538.5,-221.98 535,-211.98 531.5,-221.98 538.5,-221.98"/>
<text text-anchor="middle" x="545.5" y="-231.8" font-family="Times,serif" font-size="14.00">n12</text>
</g>
<!-- i15&#45;&gt;i19 -->
<g id="edge16" class="edge">
<title>i15&#45;&gt;i19</title>
<path fill="none" stroke="black" d="M397.12,-86.8C392.54,-75.35 386.42,-60.06 381.16,-46.89"/>
<polygon fill="black" stroke="black" points="384.51,-45.86 377.55,-37.87 378.01,-48.46 384.51,-45.86"/>
<text text-anchor="middle" x="399.5" y="-57.8" font-family="Times,serif" font-size="14.00">n14</text>
</g>
<!-- i16&#45;&gt;i17 -->
<g id="edge17" class="edge">
<title>i16&#45;&gt;i17</title>
<path fill="none" stroke="black" d="M54.14,-176.58C80.3,-162.68 120.11,-141.54 149.33,-126.01"/>
<polygon fill="black" stroke="black" points="150.66,-129.27 157.85,-121.49 147.38,-123.09 150.66,-129.27"/>
<text text-anchor="middle" x="127.5" y="-144.8" font-family="Times,serif" font-size="14.00">n15</text>
</g>
<!-- i18 -->
<g id="node18" class="node">
<title>i18</title>
<polygon fill="none" stroke="black" points="541.5,-123 450.5,-123 450.5,-87 541.5,-87 541.5,-123"/>
<text text-anchor="middle" x="496" y="-101.3" font-family="Times,serif" font-size="14.00">$const_UB32</text>
</g>
<!-- i18&#45;&gt;i19 -->
<g id="edge19" class="edge">
<title>i18&#45;&gt;i19</title>
<path fill="none" stroke="black" d="M470.2,-86.59C451.43,-73.93 425.79,-56.64 405.15,-42.71"/>
<polygon fill="black" stroke="black" points="407.27,-39.92 397.02,-37.23 403.35,-45.72 407.27,-39.92"/>
<text text-anchor="middle" x="450.5" y="-57.8" font-family="Times,serif" font-size="14.00">n17</text>
</g>
</g>
</svg>
